PathFileType	4	(X/Y/Z)	C:/Users/opensim2020/Desktop/walking_exp_matlab/subject01_walking10_straight_02.trc	
DataRate	CameraRate	NumFrames	NumMarkers	Units	OrigDataRate	OrigDataStartFrame	OrigNumFrames	
100.00	100.00	5	43	mm	100.00	2117	262	
Frame#	Time	LFHD			RFHD			LBHD			RBHD			C7			T10			CLAV			STRN			RBAK			LSHO			LUPA			LELB			LFRM			LWRA			LWRB			LFIN			RSHO			RUPA			RELB			RFRM			RWRA			RWRB			RFIN			LASI			RASI			LPSI			RPSI			LTHI			LKNE			LTIB			LANK			LHEE			LTOE			RTHI			RKNE			RTIB			RANK			RHEE			RTOE			*39			*40			*41			*42			
		X1	Y1	Z1	X2	Y2	Z2	X3	Y3	Z3	X4	Y4	Z4	X5	Y5	Z5	X6	Y6	Z6	X7	Y7	Z7	X8	Y8	Z8	X9	Y9	Z9	X10	Y10	Z10	X11	Y11	Z11	X12	Y12	Z12	X13	Y13	Z13	X14	Y14	Z14	X15	Y15	Z15	X16	Y16	Z16	X17	Y17	Z17	X18	Y18	Z18	X19	Y19	Z19	X20	Y20	Z20	X21	Y21	Z21	X22	Y22	Z22	X23	Y23	Z23	X24	Y24	Z24	X25	Y25	Z25	X26	Y26	Z26	X27	Y27	Z27	X28	Y28	Z28	X29	Y29	Z29	X30	Y30	Z30	X31	Y31	Z31	X32	Y32	Z32	X33	Y33	Z33	X34	Y34	Z34	X35	Y35	Z35	X36	Y36	Z36	X37	Y37	Z37	X38	Y38	Z38	X39	Y39	Z39	X40	Y40	Z40	X41	Y41	Z41	X42	Y42	Z42	X43	Y43	Z43	

99	0.980	-992.76691	205.16786	1666.28699	-1100.92834	167.42876	1671.51636	-1027.35303	320.07425	1632.64819	-1142.47107	283.90482	1638.02283	-1063.19653	361.57208	1431.22949	-1068.91235	387.82303	1135.97815	-1059.14380	218.63423	1364.97888	-1055.37842	169.18480	1212.72070	-1140.42224	411.73895	1233.92419	-898.66681	285.69614	1392.51697	-819.58075	322.99164	1205.48767	-825.73181	340.19788	1056.98071	-799.71332	312.41284	947.44641	-815.33228	243.84904	825.26587	-793.27997	299.81259	825.63336	-784.04181	259.33057	750.57965	-1212.22852	279.69543	1390.00806	-1315.59753	327.44174	1188.79248	-1322.55762	318.35220	1064.22107	-1354.83777	274.81165	951.75159	-1337.47546	177.44157	847.77734	-1375.97083	221.47762	842.85968	-1375.99561	174.20287	771.00879	-964.26471	207.70332	934.89764	-1181.19189	219.81413	927.58521	-1005.42810	397.32156	946.82208	-1150.40125	401.92801	949.52600	-909.37659	187.87392	610.11981	-930.46240	175.20601	477.51099	-918.02051	196.46809	288.44662	-973.23254	198.74384	71.52602	-1026.34595	241.97658	41.46997	-969.46387	52.04762	39.18876	-1236.84900	314.81351	599.93481	-1220.82886	336.42062	439.59448	-1223.93909	470.92889	322.26782	-1180.43176	595.12622	153.72238	-1126.37659	650.65253	149.55176	-1171.55908	506.48105	37.66115	-1080.10583	180.81087	1705.97009	-3101.96729	1973.10596	1023.34534	-3140.61255	2012.53381	1022.04712			 
100	0.990	-990.86700	198.02596	1667.02930	-1099.05261	160.40399	1672.25244	-1025.28503	313.00839	1633.31433	-1140.54639	276.92340	1638.73914	-1061.15820	354.38708	1431.86475	-1066.69824	380.37152	1136.56921	-1057.21448	211.35281	1365.84644	-1053.53650	161.70924	1213.66455	-1138.46472	404.41696	1234.59265	-896.74890	278.22961	1393.37000	-817.31299	314.89679	1206.38452	-823.37354	331.42145	1057.58154	-797.44006	302.75668	948.30170	-813.23553	233.26387	826.65741	-790.97076	289.05722	826.66516	-781.87616	248.18193	752.02393	-1210.18103	272.56064	1390.89124	-1313.74585	320.74380	1189.96387	-1320.51318	312.55624	1065.31445	-1352.82141	269.64471	952.44501	-1335.69275	172.89688	847.85211	-1374.20654	217.10556	843.33319	-1374.05420	170.41724	770.90295	-962.01947	199.94060	935.63544	-1178.79761	212.49814	928.61658	-1003.32776	389.66278	947.47015	-1148.32068	394.51910	950.10516	-907.79639	183.42694	609.75543	-929.01141	170.88513	477.17245	-917.81757	194.29660	288.11713	-973.33514	198.28929	71.38749	-1026.34583	241.94038	41.52866	-969.46234	51.69942	38.94285	-1236.05090	302.44128	599.58551	-1221.40625	322.32300	439.50766	-1223.81091	459.15021	324.81070	-1180.27527	586.69641	159.02794	-1125.56787	641.55902	157.66599	-1170.74817	505.57538	37.71197	-1078.23633	173.77971	1706.71021	-3102.08545	1973.03625	1023.28058	-3140.67749	2012.39685	1021.90802			 
101	1.000	-989.00049	190.98044	1667.65247	-1097.26489	153.41475	1672.92236	-1023.37482	305.91827	1633.96252	-1138.61621	269.96817	1639.35071	-1059.14063	347.19275	1432.41833	-1064.36401	373.00397	1137.13049	-1055.31824	204.36458	1366.57495	-1051.71313	154.32654	1214.52148	-1136.40210	397.14740	1235.22571	-894.90381	270.76031	1394.15063	-815.07666	306.80945	1207.27551	-820.98889	322.53040	1058.32104	-795.12451	292.93854	949.18622	-811.17548	222.39308	828.19470	-788.39838	278.13547	827.64972	-779.75391	236.49591	753.25378	-1208.25684	265.42957	1391.69250	-1311.95288	313.93423	1191.02026	-1318.49744	306.57413	1066.37610	-1350.85767	264.46371	953.13885	-1334.12122	168.95309	847.73114	-1372.38416	212.67992	843.67792	-1372.07104	166.58110	770.76447	-959.97955	192.43736	936.25781	-1176.53259	205.39243	929.65472	-1001.08203	382.13516	948.05518	-1146.15674	387.30154	950.58844	-906.27417	179.08755	609.27155	-927.68005	167.52773	476.65240	-917.52057	192.44269	287.77087	-973.52789	197.54945	71.31100	-1026.27380	241.90805	41.61003	-969.59961	51.30093	38.62014	-1235.82593	290.33859	599.63794	-1221.39087	308.01627	439.45975	-1223.53540	446.76996	327.33249	-1180.27625	577.63788	164.35173	-1125.00330	631.69537	165.55933	-1169.82397	504.11490	38.06386	-1076.43481	166.75458	1707.44385	-3102.04761	1973.18115	1023.41858	-3140.71143	2012.49194	1022.13678			 
102	1.010	-986.90247	183.90764	1668.56201	-1095.59192	146.46126	1673.54846	-1021.51788	298.83630	1634.48999	-1136.77075	263.02496	1639.91553	-1057.19299	340.06055	1432.94214	-1062.03577	365.78638	1137.69226	-1053.59509	197.05162	1367.12854	-1050.00427	147.03981	1215.18823	-1134.30981	389.94476	1235.77588	-893.11517	263.28253	1394.91663	-812.91724	298.62491	1208.12415	-818.59558	313.60919	1059.00098	-792.70111	283.01962	949.99908	-809.10834	211.42653	829.68005	-786.12665	267.02585	828.61389	-777.51099	224.70711	754.81927	-1206.45178	258.39728	1392.37830	-1310.18396	307.23355	1191.96069	-1316.45227	300.55200	1067.25684	-1348.99219	259.40286	953.88800	-1332.44275	164.49170	847.79303	-1370.77588	208.44362	844.01050	-1370.24304	162.68338	770.54395	-957.97620	184.96515	936.59534	-1174.47961	198.42535	930.54510	-998.86761	374.76990	948.63971	-1143.95349	380.43274	950.94421	-904.90771	174.95831	608.89972	-926.22803	164.07149	476.21078	-917.08997	190.84726	287.46365	-973.33081	197.72144	71.22469	-1026.24048	241.89394	41.67308	-969.66412	50.90554	38.32242	-1235.25928	277.97836	599.36707	-1221.20422	293.28876	439.42477	-1223.56567	434.31625	330.26953	-1180.37036	568.19623	169.81065	-1124.75220	621.82513	173.48164	-1169.53345	501.05994	39.80148	-1074.80688	159.78223	1708.03516	-3101.89502	1973.03906	1023.81000	-3140.75757	2012.51343	1021.97906			 
103	1.020	-985.49915	176.85176	1668.87866	-1093.96204	139.56593	1674.10754	-1019.74945	291.78656	1634.90332	-1135.06592	256.11148	1640.36243	-1055.26196	332.95465	1433.38391	-1059.67383	358.64172	1138.18579	-1051.84778	189.90979	1367.67480	-1048.34802	139.80765	1215.77405	-1132.17786	382.93634	1236.33411	-891.34528	255.74915	1395.55151	-810.74072	290.38034	1208.85864	-816.05817	304.67337	1059.49500	-790.27197	273.02859	950.80847	-807.00745	200.36975	831.13483	-783.89642	255.83728	829.50494	-775.42480	212.67703	755.97565	-1204.63196	251.40070	1392.96387	-1308.35095	300.77405	1192.72498	-1314.55933	294.66425	1068.02441	-1346.98962	254.25542	954.27594	-1330.67847	159.98418	847.61627	-1368.88586	203.97139	844.21838	-1368.32031	158.79422	770.29449	-956.20953	177.76205	936.83386	-1172.49219	191.67386	931.35046	-996.71088	367.61603	949.18805	-1141.72083	373.70163	951.03357	-903.61694	170.64015	608.58264	-924.91461	160.78644	475.83118	-916.51782	189.47090	287.28464	-973.35168	197.25478	71.17373	-1026.20801	241.79872	41.72828	-969.58618	50.69077	38.00914	-1234.67273	265.65244	599.18964	-1220.77478	278.32526	439.19055	-1222.92749	420.55032	332.29990	-1180.03491	558.14514	175.43349	-1124.81348	611.94775	181.42877	-1168.76367	497.68332	41.93783	-1073.05884	152.78970	1708.67163	-3101.90845	1973.10327	1023.59082	-3140.65820	2012.59131	1022.16089			 
